<svg id="root" height="1024" width="1024" viewBox="0 0 512 512" xmlns="http://www.w3.org/2000/svg" xmlns:xlink="http://www.w3.org/1999/xlink">
    <g id="product-935b4eb1-6058-4805-a8d5-41f424c690d2">
        <g id="product-0kJf8AMRbCMR2NWZBJW$5S">
            <path id="0" style="stroke:black; fill:blue;" d="M56.1789,169.687 L114.03,229.607 L129.549,214.624 L130.379,213.823 L141.879,202.72 L131.655,192.131 L149.776,174.635 L139.234,163.717 L122.133,180.228 L110.702,168.388 L107.414,171.564 L92.8079,156.436 L92.1729,155.778 L81.7584,144.991 L56.1789,169.687"/>
        </g>
        
        <g id="product-2tKlofp7D56Bca5NBbKyfO">
            <path id = "1" style="stroke:black; fill:white;" d="M115.649,231.285 L145.175,202.778 L134.951,192.188 L151.395,176.313 L162.19,187.494 L159.592,190.003 L170.07,200.855 L172.668,198.347 L197.047,223.598 L151.078,267.98 L115.649,231.285"/>
        </g>
        <g id="product-2eCGkawhrFRBCRxCBsL2Uc">
            <path id = "2" style="stroke:black; fill:blue;" d="M162.19,187.494 L151.395,176.313 L134.951,192.188 L144.477,202.055 L148.456,198.213 L159.601,209.756 L168.119,201.532 L169.467,200.23 L159.592,190.003 L162.19,187.494"/>
        </g>
        <g id="product-2eCGkawhrFRBCRxCBsL2Uj">
            <path id = "3" style="stroke:black; fill:blue;" d="M193.101,227.408 L151.078,267.98 L115.649,231.285 L131.179,216.291 L148.07,233.787 L148.695,233.184 L144.885,229.238 L160.855,213.819 L164.665,217.766 L166.047,216.432 L159.601,209.756 L168.119,201.532 L168.722,202.157 L172.668,198.347 L195.847,222.354 L191.901,226.165 L193.101,227.408"/>
        </g>
        <g id="product-0BM9a9dmr3MxddIj0j0hfA">
            <path id = "4" style="stroke:black; fill:white;" d="M148.431,199.635 L159.544,211.145 L143.101,227.021 L131.988,215.51 L148.431,199.635"/>
        </g>
        
        
        <g id="product-2t2nY2il52svrX02ZSuNFE">
            <path id = "9" style="stroke:black; fill:none;" d="M141.795,56.2092 L110.113,23.3946 L85.5205,47.1384 L79.3706,53.0759 L107.041,81.7363 L107.052,81.7467 L107.353,82.0592 L111.042,85.88 L111.052,85.8905 L117.695,79.4767 L118.331,78.8633 L121.631,75.6766 L122.277,75.0531 L141.795,56.2092"/>
        </g>
        <g id="product-2t2nY2il52svrX02ZSuNFF">
            <path id = "10" style="stroke:black; fill:none;" d="M151.469,124.264 L180.468,96.2655 L161.417,76.5333 L145.099,92.2884 L136.904,100.2 L136.894,100.21 L136.581,100.512 L132.418,104.532 L149.532,122.258 L151.469,124.264"/>
        </g>
        <g id="product-2t2nY2il52svrX02ZSuNF8">
            <path id = "11" style="stroke:black; fill:pink;" d="M143.065,57.5247 L160.497,75.5796 L156.55,79.3898 L156.868,79.7187 L144.808,91.3619 L136.489,82.7456 L132.967,86.1461 L127.802,80.7961 L127.791,80.7856 L127.49,80.4731 L123.537,76.3787 L143.065,57.5247"/>
        </g>
        <g id="product-2t2nY2il52svrX02ZSuNF9">
            <path id = "12" style="stroke:black; fill:none;" d="M96.9075,99.5469 L88.0643,108.085 L81.1843,100.959 L80.5608,100.313 L69.6484,89.0104 L73.5949,85.2002 L72.9598,84.5425 L69.0134,88.3526 L57.5828,76.5133 L61.5293,72.7032 L60.3291,71.46 L78.7458,53.6792 L106.427,82.35 L97.0868,91.3675 L101.088,95.5112 L98.5881,97.9243 L96.9075,99.5469"/>
        </g>
        <g id="product-2t2nY2il52svrX02ZSuNFA">
            <path id = "13" style="stroke:black; fill:none;" d="M106.178,104.469 L100.516,98.6048 L102.347,96.8368 L103.124,96.0863 L111.687,87.8194 L112.322,87.206 L111.052,85.8905 L117.695,79.4767 L118.976,80.8027 L123.22,85.199 L127.167,81.3888 L132.945,87.3743 L136.468,83.9737 L144.183,91.9652 L136.29,99.5856 L133.02,96.1982 L126.505,102.488 L129.68,105.777 L118.17,116.89 L106.178,104.469"/>
        </g>
        <g id="product-2t2nY2il52svrX02ZSuNFT">
            <path id = "14" style="stroke:black; fill:none;" d="M135.633,134.978 L118.868,117.613 L130.379,106.5 L147.144,123.865 L135.633,134.978"/>
        </g>
        <g id="product-3IUXnbOEX6OQzNbrV$XK$n">
            <path id = "15" style="stroke:black; fill:none;" d="M54.5596,168.01 L9.09779,120.923 L55.0672,76.5403 L79.2555,101.594 L76.6574,104.102 L88.596,116.467 L91.194,113.959 L112.563,136.092 L95.8891,152.19 L83.8553,139.726 L54.5596,168.01"/>
        </g>
        <g id="product-3IUXnbOEX6OQzNbrV$XK$j">
            <path id = "16" style="stroke:black; fill:orange;" d="M31.9805,98.8298 L9.09779,120.923 L12.0761,124.007 L43.8276,156.894 L54.5596,168.01 L80.9777,142.504 L81.8163,141.694 L82.77,140.774 L75.1497,132.881 L69.822,138.024 L69.0599,137.235 L73.0064,133.425 L69.1962,129.479 L65.2498,133.289 L65.091,133.124 L68.3435,129.984 L69.0374,129.314 L60.7287,120.708 L60.1051,120.062 L51.2566,110.897 L47.3102,114.708 L46.5697,113.941 L31.9805,98.8298"/>
        </g>
        <g id="product-3IUXnbOEX6OQzNbrV$XK$Y">
            <path id = "17" style="stroke:black; fill:none;" d="M32.6054,98.2265 L55.0672,76.5403 L56.2775,77.7939 L67.6878,89.6122 L68.3431,90.2909 L79.2555,101.594 L76.9698,103.8 L60.8388,119.374 L51.9902,110.209 L51.2498,109.443 L47.2047,113.348 L32.6054,98.2265"/>
        </g>
        <g id="product-3IUXnbOEX6OQzNbrV$XK$Z">
            <path id = "18" style="stroke:black; fill:none;" d="M91.194,113.959 L97.3221,120.306 L100.529,123.628 L83.8658,139.716 L82.77,140.774 L74.848,132.568 L71.3395,128.934 L86.5004,114.297 L88.596,116.467 L91.194,113.959"/>
        </g>
        <g id="product-3IUXnbOEX6OQzNbrV$XK$W">
            <path id = "19" style="stroke:black; fill:none;" d="M112.563,136.092 L95.8891,152.19 L84.5538,140.449 L101.227,124.351 L112.563,136.092"/>
        </g>
        <g id="product-3IUXnbOEX6OQzNbrV$XK$X">
            <path id = "20" style="stroke:black; fill:none;" d="M77.2607,104.727 L85.8971,113.672 L70.0785,128.944 L61.442,119.999 L77.2607,104.727"/>
        </g>
        <g id="product-0A0G8VX7bD0gDZCSRWvcN2">
            <path id = "21" style="stroke:black; fill:none;" d="M83.3868,44.9284 L70.6862,31.7736 L95.3514,7.95997 L108.052,21.1147 L83.3868,44.9284"/>
        </g>
        <g id="product-0A0G8VX7bD0gDZCSRWvcNN">
            <path id = "22" style="stroke:black; fill:none;" d="M239.797,212.011 L227.096,198.856 L251.761,175.042 L264.462,188.197 L239.797,212.011"/>
        </g>
        <g id="product-29CNTH5drFsxhYtxbiz8ED">
            <path id = "23" style="stroke:black; fill:none;" d="M134.164,281.209 L110.35,256.544 L123.505,243.843 L147.318,268.509 L134.164,281.209"/>
        </g>
        <g id="product-29CNTH5drFsxhYtxbiz8mF">
            <path id = "24" style="stroke:black; fill:none;" d="M31.7515,168.553 L0,135.666 L9.86608,126.141 L41.6176,159.028 L31.7515,168.553"/>
        </g>
        <g id="product-0gyGCinDn7wRp1SoIRm3ix">
            <path id = "25" style="stroke:black; fill:none;" d="M89.3344,109.4 L115.148,136.137 L94.7584,155.823 L107.459,168.978 L127.849,149.292 L129.119,150.608 L112.018,167.118 L122.178,177.642 L139.279,161.131 L165.411,188.197 L175.277,178.672 L99.2004,99.8748 L89.3344,109.4"/>
        </g>
        <g id="product-0gyGCinDn7wRp1SoIRm3i7">
            <path id = "26" style="stroke:black; fill:none;" d="M115.148,136.137 L89.3344,109.4 L99.2004,99.8748 L175.277,178.672 L165.411,188.197 L139.279,161.131 L122.178,177.642 L112.018,167.118 L129.119,150.608 L127.849,149.292 L107.459,168.978 L94.7584,155.823 L115.148,136.137"/>
        </g>
        <g id="product-3Vm39kaQn2IBD5J$tOjHF1">
            <path id = "27" style="stroke:black; fill:none;" d="M166.681,189.513 L177.863,178.717 L141.38,140.93 L152.891,129.817 L150.7,127.548 L181.738,97.581 L252.093,170.452 L198.363,222.327 L166.681,189.513"/>
            <path id = "28" style="stroke:black; fill:none;" d="M198.277,155.767 L195.325,152.708 L192.727,155.217 L195.679,158.275 L198.277,155.767"/>
            <path id = "29" style="stroke:black; fill:none;" d="M183.871,179.017 L191.731,171.428 L189,168.6 L181.14,176.189 L183.871,179.017"/>
            <path id = "30" style="stroke:black; fill:none;" d="M171.69,147.314 L173.658,149.353 L178.2,144.968 L176.231,142.929 L171.69,147.314"/>
        </g>
        <g id="product-3Vm39kaQn2IBD5J$tOjHF8">
            <path id = "product-3Vm39kaQn2IBD5J$tOjHF8_0" style="stroke:black; fill:none;" d="M221.351,200.133 L224.963,196.646 L249.628,172.832 L252.093,170.452 L220.412,137.637 L200.894,156.481 L200.248,157.105 L196.947,160.291 L196.312,160.905 L189.669,167.319 L189.679,167.329 L193.368,171.15 L193.67,171.462 L193.68,171.473 L221.351,200.133"/>
        </g>
        <g id="product-3Vm39kaQn2IBD5J$tOjHFB">
            <path id = "product-3Vm39kaQn2IBD5J$tOjHFB_0" style="stroke:black; fill:none;" d="M181.738,97.581 L152.739,125.579 L154.676,127.586 L171.79,145.312 L175.953,141.292 L176.265,140.99 L176.276,140.98 L184.471,133.068 L200.789,117.313 L181.738,97.581"/>
        </g>
        <g id="product-3Vm39kaQn2IBD5J$tOjHFA">
            <path id = "product-3Vm39kaQn2IBD5J$tOjHFA_0" style="stroke:black; fill:none;" d="M201.71,118.267 L219.142,136.322 L199.613,155.176 L195.66,151.081 L195.359,150.769 L195.349,150.758 L190.183,145.408 L193.705,142.008 L185.386,133.391 L197.446,121.748 L197.764,122.077 L201.71,118.267"/>
        </g>
        <g id="product-3Vm39kaQn2IBD5J$tOjHFr">
            <path id = "product-3Vm39kaQn2IBD5J$tOjHFr_0" style="stroke:black; fill:none;" d="M220.726,200.736 L202.309,218.517 L201.109,217.274 L197.162,221.084 L185.732,209.245 L189.678,205.435 L189.043,204.777 L185.097,208.587 L173.994,197.087 L173.37,196.442 L166.681,189.513 L175.524,180.975 L177.205,179.352 L179.704,176.939 L183.705,181.083 L193.045,172.066 L220.726,200.736"/>
        </g>
        <g id="product-3Vm39kaQn2IBD5J$tOjHFq">
            <path id = "product-3Vm39kaQn2IBD5J$tOjHFq_0" style="stroke:black; fill:none;" d="M170.931,171.538 L158.939,159.117 L170.449,148.004 L173.624,151.292 L180.139,145.002 L176.869,141.615 L184.762,133.995 L192.477,141.986 L188.955,145.387 L194.734,151.372 L190.787,155.182 L195.032,159.579 L196.312,160.905 L189.669,167.319 L188.399,166.003 L187.764,166.617 L179.201,174.883 L178.424,175.634 L176.593,177.402 L170.931,171.538"/>
        </g>
        <g id="product-3Vm39kaQn2IBD5J$tOjHFm">
            <path id = "product-3Vm39kaQn2IBD5J$tOjHFm_0" style="stroke:black; fill:none;" d="M158.24,158.393 L141.475,141.029 L152.986,129.916 L169.751,147.28 L158.24,158.393"/>
        </g>
        <g id="product-2XPVBZMij4kQUVHZ6T$oMB">
            <path id = "product-2XPVBZMij4kQUVHZ6T$oMB_0" style="stroke:black; fill:none;" d="M104.852,105.729 L169.625,172.818 L169.296,173.136 L174.948,178.989 L165.411,188.197 L89.3344,109.4 L98.8716,100.192 L104.523,106.046 L104.852,105.729"/>
        </g>
        <g id="product-2t2nY2il52svrX02ZSuNFn">
            <path id = "6" style="stroke:black; fill:gray;" d="M125.852,80.7515 L122.899,77.693 L120.301,80.2014 L123.254,83.2599 L125.852,80.7515"/>
            <path id = "7" style="stroke:black; fill:blue;" d="M134.954,100.176 L132.986,98.1374 L128.444,102.522 L130.413,104.561 L134.954,100.176"/>
            <path id = "8" style="stroke:black; fill:brown;" d="M107.018,83.6859 L99.1575,91.2745 L101.888,94.1028 L109.748,86.5142 L107.018,83.6859"/>
        </g>
    </g>
</svg>
